<?xml version="1.0" encoding="utf-8"?>
<!-- Generator: Adobe Illustrator 28.3.0, SVG Export Plug-In . SVG Version: 6.00 Build 0)  -->
<svg version="1.1" id="katman_1" xmlns="http://www.w3.org/2000/svg" xmlns:xlink="http://www.w3.org/1999/xlink" x="0px" y="0px"
	 viewBox="0 0 1166 300" style="enable-background:new 0 0 1166 300;" xml:space="preserve">
<style type="text/css">
	.st0{fill:#FBF7EE;stroke:#D8CDB7;stroke-width:1.5;}
	.st1{fill:#8C8475;}
	.st2{font-family:'CourierNewPSMT','Courier New',monospace;}
	.st3{font-size:12px;}
	.st4{letter-spacing:1;}
	.st5{fill:#CA0000;}
	.st6{font-family:'CourierNewPS-BoldMT','Courier New',monospace;font-weight:bold;}
	.st7{font-size:11px;}
	.st8{fill:#FBF7EE;stroke:#D8CDB7;stroke-width:1.1271;stroke-miterlimit:3.2204;}
	.st9{fill:none;stroke:#D8CDB7;stroke-width:0.9661;stroke-miterlimit:3.2204;}
	.st10{fill:#5B5448;}
	.st11{fill:#F6DED6;}
	.st12{font-family:'ArialMT','Arial',sans-serif;}
	
		.st13{opacity:0.9;fill:none;stroke:#CA0000;stroke-width:2.6;stroke-linecap:round;stroke-linejoin:round;enable-background:new    ;}
	.st14{fill:#FFFFFF;}
	.st15{font-size:6.8434px;}
	.st16{fill:#FBF7EE;stroke:#D8CDB7;stroke-width:0.8051;stroke-miterlimit:3.2204;}
	.st17{stroke:#D8CDB7;stroke-width:0.6441;stroke-miterlimit:3.2204;}
	.st18{fill:#56768F;}
	.st19{font-size:4.8306px;}
	.st20{fill:#D8CDB7;fill-opacity:0.55;}
	.st21{stroke:#8C8475;stroke-width:0.8051;stroke-miterlimit:3.2204;stroke-opacity:0.5;}
	.st22{fill:#8C8475;fill-opacity:0.6;}
</style>
<path class="st0" d="M22,6h1122c8.8,0,16,7.2,16,16v256c0,8.8-7.2,16-16,16H22c-8.8,0-16-7.2-16-16V22C6,13.2,13.2,6,22,6z"/>
<text transform="matrix(1 0 0 1 30 40)" class="st1 st2 st3 st4">HOW TO ANSWER</text>
<text transform="matrix(1 0 0 1 28 70)" class="st5 st6 st7 st4">STEP 1</text>
<g transform="translate(28,78) scale(0.8051)">
	<path class="st8" d="M15,8h206c3.9,0,7,3.1,7,7v102c0,3.9-3.1,7-7,7H15c-3.9,0-7-3.1-7-7V15C8,11.1,11.1,8,15,8z"/>
	<path class="st9" d="M72,8v116 M128,8v116 M184,8v116 M8,40h220 M8,82h220"/>
	<path class="st1" d="M18.5,15h37c1.4,0,2.5,1.1,2.5,2.5l0,0c0,1.4-1.1,2.5-2.5,2.5h-37c-1.4,0-2.5-1.1-2.5-2.5l0,0
		C16,16.1,17.1,15,18.5,15z"/>
	<path class="st1" d="M82.5,15h35c1.4,0,2.5,1.1,2.5,2.5l0,0c0,1.4-1.1,2.5-2.5,2.5h-35c-1.4,0-2.5-1.1-2.5-2.5l0,0
		C80,16.1,81.1,15,82.5,15z"/>
	<path class="st1" d="M138.5,15h35c1.4,0,2.5,1.1,2.5,2.5l0,0c0,1.4-1.1,2.5-2.5,2.5h-35c-1.4,0-2.5-1.1-2.5-2.5l0,0
		C136,16.1,137.1,15,138.5,15z"/>
	<path class="st1" d="M194.5,15h23c1.4,0,2.5,1.1,2.5,2.5l0,0c0,1.4-1.1,2.5-2.5,2.5h-23c-1.4,0-2.5-1.1-2.5-2.5l0,0
		C192,16.1,193.1,15,194.5,15z"/>
	<path class="st10" d="M18.5,53h41c1.4,0,2.5,1.1,2.5,2.5l0,0c0,1.4-1.1,2.5-2.5,2.5h-41c-1.4,0-2.5-1.1-2.5-2.5l0,0
		C16,54.1,17.1,53,18.5,53z"/>
	<path class="st10" d="M18.5,63h29c1.4,0,2.5,1.1,2.5,2.5l0,0c0,1.4-1.1,2.5-2.5,2.5h-29c-1.4,0-2.5-1.1-2.5-2.5l0,0
		C16,64.1,17.1,63,18.5,63z"/>
	<path class="st10" d="M18.5,95h41c1.4,0,2.5,1.1,2.5,2.5l0,0c0,1.4-1.1,2.5-2.5,2.5h-41c-1.4,0-2.5-1.1-2.5-2.5l0,0
		C16,96.1,17.1,95,18.5,95z"/>
	<path class="st10" d="M18.5,105h25c1.4,0,2.5,1.1,2.5,2.5l0,0c0,1.4-1.1,2.5-2.5,2.5h-25c-1.4,0-2.5-1.1-2.5-2.5l0,0
		C16,106.1,17.1,105,18.5,105z"/>
	<rect x="8.7" y="40.6" class="st11" width="63" height="82.8"/>
	<path class="st5" d="M18.5,53h41c1.4,0,2.5,1.1,2.5,2.5l0,0c0,1.4-1.1,2.5-2.5,2.5h-41c-1.4,0-2.5-1.1-2.5-2.5l0,0
		C16,54.1,17.1,53,18.5,53z"/>
	<path class="st5" d="M18.5,63h29c1.4,0,2.5,1.1,2.5,2.5l0,0c0,1.4-1.1,2.5-2.5,2.5h-29c-1.4,0-2.5-1.1-2.5-2.5l0,0
		C16,64.1,17.1,63,18.5,63z"/>
	<path class="st5" d="M18.5,95h41c1.4,0,2.5,1.1,2.5,2.5l0,0c0,1.4-1.1,2.5-2.5,2.5h-41c-1.4,0-2.5-1.1-2.5-2.5l0,0
		C16,96.1,17.1,95,18.5,95z"/>
	<path class="st5" d="M18.5,105h25c1.4,0,2.5,1.1,2.5,2.5l0,0c0,1.4-1.1,2.5-2.5,2.5h-25c-1.4,0-2.5-1.1-2.5-2.5l0,0
		C16,106.1,17.1,105,18.5,105z"/>
</g>
<text transform="matrix(1 0 0 1 54.5683 206.2712)" class="st10 st12 st3">Each row is a statement </text>
<text transform="matrix(1 0 0 1 54.5683 221.2712)" class="st10 st12 st3">one of the questions you</text>
<text transform="matrix(1 0 0 1 54.5683 236.2712)" class="st10 st12 st3">answer.</text>
<path class="st13" d="M227,131.1h22 M242,125.1l7,6l-7,6"/>
<text transform="matrix(1 0 0 1 260 70)" class="st5 st6 st7 st4">STEP 2</text>
<g transform="translate(260,78) scale(0.8051)">
	<path class="st8" d="M15,8h206c3.9,0,7,3.1,7,7v102c0,3.9-3.1,7-7,7H15c-3.9,0-7-3.1-7-7V15C8,11.1,11.1,8,15,8z"/>
	<path class="st9" d="M72,8v116 M128,8v116 M184,8v116 M8,40h220 M8,82h220"/>
	<path class="st1" d="M18.5,15h37c1.4,0,2.5,1.1,2.5,2.5l0,0c0,1.4-1.1,2.5-2.5,2.5h-37c-1.4,0-2.5-1.1-2.5-2.5l0,0
		C16,16.1,17.1,15,18.5,15z"/>
	<path class="st1" d="M82.5,15h35c1.4,0,2.5,1.1,2.5,2.5l0,0c0,1.4-1.1,2.5-2.5,2.5h-35c-1.4,0-2.5-1.1-2.5-2.5l0,0
		C80,16.1,81.1,15,82.5,15z"/>
	<path class="st1" d="M138.5,15h35c1.4,0,2.5,1.1,2.5,2.5l0,0c0,1.4-1.1,2.5-2.5,2.5h-35c-1.4,0-2.5-1.1-2.5-2.5l0,0
		C136,16.1,137.1,15,138.5,15z"/>
	<path class="st1" d="M194.5,15h23c1.4,0,2.5,1.1,2.5,2.5l0,0c0,1.4-1.1,2.5-2.5,2.5h-23c-1.4,0-2.5-1.1-2.5-2.5l0,0
		C192,16.1,193.1,15,194.5,15z"/>
	<path class="st10" d="M18.5,53h41c1.4,0,2.5,1.1,2.5,2.5l0,0c0,1.4-1.1,2.5-2.5,2.5h-41c-1.4,0-2.5-1.1-2.5-2.5l0,0
		C16,54.1,17.1,53,18.5,53z"/>
	<path class="st10" d="M18.5,63h29c1.4,0,2.5,1.1,2.5,2.5l0,0c0,1.4-1.1,2.5-2.5,2.5h-29c-1.4,0-2.5-1.1-2.5-2.5l0,0
		C16,64.1,17.1,63,18.5,63z"/>
	<path class="st10" d="M18.5,95h41c1.4,0,2.5,1.1,2.5,2.5l0,0c0,1.4-1.1,2.5-2.5,2.5h-41c-1.4,0-2.5-1.1-2.5-2.5l0,0
		C16,96.1,17.1,95,18.5,95z"/>
	<path class="st10" d="M18.5,105h25c1.4,0,2.5,1.1,2.5,2.5l0,0c0,1.4-1.1,2.5-2.5,2.5h-25c-1.4,0-2.5-1.1-2.5-2.5l0,0
		C16,106.1,17.1,105,18.5,105z"/>
	<rect x="72.3" y="8.7" class="st11" width="55.4" height="114.6"/>
	<path class="st5" d="M82.5,15h35c1.4,0,2.5,1.1,2.5,2.5l0,0c0,1.4-1.1,2.5-2.5,2.5h-35c-1.4,0-2.5-1.1-2.5-2.5l0,0
		C80,16.1,81.1,15,82.5,15z"/>
	<circle class="st5" cx="100" cy="29.2" r="6.5"/>
	<text transform="matrix(1.2421 0 0 1.2421 97.2923 31.6842)" class="st14 st6 st15">?</text>
</g>
<text transform="matrix(1 0 0 1 279.8568 206.2712)" class="st10 st12 st3">Columns are the tasks you</text>
<text transform="matrix(1 0 0 1 279.8568 221.2712)" class="st10 st12 st3">use AI for. Tap the ? on a</text>
<text transform="matrix(1 0 0 1 279.8568 236.2712)" class="st10 st12 st3">column for details.</text>
<path class="st13" d="M459,131.1h22 M474,125.1l7,6l-7,6"/>
<text transform="matrix(1 0 0 1 492 70)" class="st5 st6 st7 st4">STEP 3</text>
<g transform="translate(492,78) scale(0.8051)">
	<path class="st8" d="M15,8h206c3.9,0,7,3.1,7,7v102c0,3.9-3.1,7-7,7H15c-3.9,0-7-3.1-7-7V15C8,11.1,11.1,8,15,8z"/>
	<path class="st9" d="M72,8v116 M128,8v116 M184,8v116 M8,40h220 M8,82h220"/>
	<path class="st1" d="M18.5,15h37c1.4,0,2.5,1.1,2.5,2.5l0,0c0,1.4-1.1,2.5-2.5,2.5h-37c-1.4,0-2.5-1.1-2.5-2.5l0,0
		C16,16.1,17.1,15,18.5,15z"/>
	<path class="st1" d="M82.5,15h35c1.4,0,2.5,1.1,2.5,2.5l0,0c0,1.4-1.1,2.5-2.5,2.5h-35c-1.4,0-2.5-1.1-2.5-2.5l0,0
		C80,16.1,81.1,15,82.5,15z"/>
	<path class="st1" d="M138.5,15h35c1.4,0,2.5,1.1,2.5,2.5l0,0c0,1.4-1.1,2.5-2.5,2.5h-35c-1.4,0-2.5-1.1-2.5-2.5l0,0
		C136,16.1,137.1,15,138.5,15z"/>
	<path class="st1" d="M194.5,15h23c1.4,0,2.5,1.1,2.5,2.5l0,0c0,1.4-1.1,2.5-2.5,2.5h-23c-1.4,0-2.5-1.1-2.5-2.5l0,0
		C192,16.1,193.1,15,194.5,15z"/>
	<path class="st10" d="M18.5,53h41c1.4,0,2.5,1.1,2.5,2.5l0,0c0,1.4-1.1,2.5-2.5,2.5h-41c-1.4,0-2.5-1.1-2.5-2.5l0,0
		C16,54.1,17.1,53,18.5,53z"/>
	<path class="st10" d="M18.5,63h29c1.4,0,2.5,1.1,2.5,2.5l0,0c0,1.4-1.1,2.5-2.5,2.5h-29c-1.4,0-2.5-1.1-2.5-2.5l0,0
		C16,64.1,17.1,63,18.5,63z"/>
	<path class="st10" d="M18.5,95h41c1.4,0,2.5,1.1,2.5,2.5l0,0c0,1.4-1.1,2.5-2.5,2.5h-41c-1.4,0-2.5-1.1-2.5-2.5l0,0
		C16,96.1,17.1,95,18.5,95z"/>
	<path class="st10" d="M18.5,105h25c1.4,0,2.5,1.1,2.5,2.5l0,0c0,1.4-1.1,2.5-2.5,2.5h-25c-1.4,0-2.5-1.1-2.5-2.5l0,0
		C16,106.1,17.1,105,18.5,105z"/>
	<path class="st16" d="M88,46h24c2.2,0,4,1.8,4,4v22c0,2.2-1.8,4-4,4H88c-2.2,0-4-1.8-4-4V50C84,47.8,85.8,46,88,46z"/>
	<path class="st17" d="M84,52h32 M84,58h32 M84,64h32 M84,70h32"/>
	<rect x="84" y="64.2" class="st18" width="31.9" height="5.8"/>
	<text transform="matrix(1.2421 0 0 1.2421 98.1997 51)" class="st10 st2 st19">1</text>
	<text transform="matrix(1.2421 0 0 1.2421 98.1997 56.9999)" class="st10 st2 st19">2</text>
	<text transform="matrix(1.2421 0 0 1.2421 98.1997 62.9999)" class="st10 st2 st19">3</text>
	<text transform="matrix(1.2421 0 0 1.2421 98.1997 68.9998)" class="st14 st2 st19">4</text>
	<text transform="matrix(1.2421 0 0 1.2421 98.1997 74.9998)" class="st10 st2 st19">5</text>
</g>
<text transform="matrix(1 0 0 1 512.2911 206.2712)" class="st10 st12 st3">Score each one, numbered</text>
<text transform="matrix(1 0 0 1 512.2911 221.2712)" class="st10 st12 st3">1 (strongly disagree) to</text>
<text transform="matrix(1 0 0 1 512.2911 236.2712)" class="st10 st12 st3">5 (strongly agree).</text>
<path class="st13" d="M691,131.1h22 M706,125.1l7,6l-7,6"/>
<text transform="matrix(1 0 0 1 724 70)" class="st5 st6 st7 st4">STEP 4</text>
<g transform="translate(724,78) scale(0.8051)">
	<path class="st8" d="M15,8h206c3.9,0,7,3.1,7,7v102c0,3.9-3.1,7-7,7H15c-3.9,0-7-3.1-7-7V15C8,11.1,11.1,8,15,8z"/>
	<path class="st9" d="M72,8v116 M128,8v116 M184,8v116 M8,40h220 M8,82h220"/>
	<path class="st1" d="M18.5,15h37c1.4,0,2.5,1.1,2.5,2.5l0,0c0,1.4-1.1,2.5-2.5,2.5h-37c-1.4,0-2.5-1.1-2.5-2.5l0,0
		C16,16.1,17.1,15,18.5,15z"/>
	<path class="st1" d="M82.5,15h35c1.4,0,2.5,1.1,2.5,2.5l0,0c0,1.4-1.1,2.5-2.5,2.5h-35c-1.4,0-2.5-1.1-2.5-2.5l0,0
		C80,16.1,81.1,15,82.5,15z"/>
	<path class="st1" d="M138.5,15h35c1.4,0,2.5,1.1,2.5,2.5l0,0c0,1.4-1.1,2.5-2.5,2.5h-35c-1.4,0-2.5-1.1-2.5-2.5l0,0
		C136,16.1,137.1,15,138.5,15z"/>
	<path class="st1" d="M194.5,15h23c1.4,0,2.5,1.1,2.5,2.5l0,0c0,1.4-1.1,2.5-2.5,2.5h-23c-1.4,0-2.5-1.1-2.5-2.5l0,0
		C192,16.1,193.1,15,194.5,15z"/>
	<path class="st10" d="M18.5,53h41c1.4,0,2.5,1.1,2.5,2.5l0,0c0,1.4-1.1,2.5-2.5,2.5h-41c-1.4,0-2.5-1.1-2.5-2.5l0,0
		C16,54.1,17.1,53,18.5,53z"/>
	<path class="st10" d="M18.5,63h29c1.4,0,2.5,1.1,2.5,2.5l0,0c0,1.4-1.1,2.5-2.5,2.5h-29c-1.4,0-2.5-1.1-2.5-2.5l0,0
		C16,64.1,17.1,63,18.5,63z"/>
	<path class="st10" d="M18.5,95h41c1.4,0,2.5,1.1,2.5,2.5l0,0c0,1.4-1.1,2.5-2.5,2.5h-41c-1.4,0-2.5-1.1-2.5-2.5l0,0
		C16,96.1,17.1,95,18.5,95z"/>
	<path class="st10" d="M18.5,105h25c1.4,0,2.5,1.1,2.5,2.5l0,0c0,1.4-1.1,2.5-2.5,2.5h-25c-1.4,0-2.5-1.1-2.5-2.5l0,0
		C16,106.1,17.1,105,18.5,105z"/>
	<rect x="128.6" y="40.6" class="st20" width="55" height="82.8"/>
	<path class="st21" d="M133,120l19-76 M148,120l19-76 M163,120l19-76"/>
	<path class="st22" d="M138.5,15h35c1.4,0,2.5,1.1,2.5,2.5l0,0c0,1.4-1.1,2.5-2.5,2.5h-35c-1.4,0-2.5-1.1-2.5-2.5l0,0
		C136,16.1,137.1,15,138.5,15z"/>
</g>
<text transform="matrix(1 0 0 1 743.7251 208.7905)" class="st10 st12 st3">A greyed column is a task</text>
<text transform="matrix(1 0 0 1 743.7251 223.7905)" class="st10 st12 st3">you skipped  leave it</text>
<text transform="matrix(1 0 0 1 858.4519 223.7905)" class="st10 st12 st3">empty.</text>
<path class="st13" d="M923,131.1h22 M938,125.1l7,6l-7,6"/>
<text transform="matrix(1 0 0 1 956 70)" class="st5 st6 st7 st4">STEP 5</text>
<g transform="translate(956,78) scale(0.8051)">
	<path class="st8" d="M15,8h206c3.9,0,7,3.1,7,7v102c0,3.9-3.1,7-7,7H15c-3.9,0-7-3.1-7-7V15C8,11.1,11.1,8,15,8z"/>
	<path class="st9" d="M72,8v116 M128,8v116 M184,8v116 M8,40h220 M8,82h220"/>
	<path class="st1" d="M18.5,15h37c1.4,0,2.5,1.1,2.5,2.5l0,0c0,1.4-1.1,2.5-2.5,2.5h-37c-1.4,0-2.5-1.1-2.5-2.5l0,0
		C16,16.1,17.1,15,18.5,15z"/>
	<path class="st1" d="M82.5,15h35c1.4,0,2.5,1.1,2.5,2.5l0,0c0,1.4-1.1,2.5-2.5,2.5h-35c-1.4,0-2.5-1.1-2.5-2.5l0,0
		C80,16.1,81.1,15,82.5,15z"/>
	<path class="st1" d="M138.5,15h35c1.4,0,2.5,1.1,2.5,2.5l0,0c0,1.4-1.1,2.5-2.5,2.5h-35c-1.4,0-2.5-1.1-2.5-2.5l0,0
		C136,16.1,137.1,15,138.5,15z"/>
	<path class="st1" d="M194.5,15h23c1.4,0,2.5,1.1,2.5,2.5l0,0c0,1.4-1.1,2.5-2.5,2.5h-23c-1.4,0-2.5-1.1-2.5-2.5l0,0
		C192,16.1,193.1,15,194.5,15z"/>
	<path class="st10" d="M18.5,53h41c1.4,0,2.5,1.1,2.5,2.5l0,0c0,1.4-1.1,2.5-2.5,2.5h-41c-1.4,0-2.5-1.1-2.5-2.5l0,0
		C16,54.1,17.1,53,18.5,53z"/>
	<path class="st10" d="M18.5,63h29c1.4,0,2.5,1.1,2.5,2.5l0,0c0,1.4-1.1,2.5-2.5,2.5h-29c-1.4,0-2.5-1.1-2.5-2.5l0,0
		C16,64.1,17.1,63,18.5,63z"/>
	<path class="st10" d="M18.5,95h41c1.4,0,2.5,1.1,2.5,2.5l0,0c0,1.4-1.1,2.5-2.5,2.5h-41c-1.4,0-2.5-1.1-2.5-2.5l0,0
		C16,96.1,17.1,95,18.5,95z"/>
	<path class="st10" d="M18.5,105h25c1.4,0,2.5,1.1,2.5,2.5l0,0c0,1.4-1.1,2.5-2.5,2.5h-25c-1.4,0-2.5-1.1-2.5-2.5l0,0
		C16,106.1,17.1,105,18.5,105z"/>
	<g>
		<path class="st5" d="M150.7,113.8c-0.6-0.2-1.3-0.1-2.1-0.1c-0.1-1-0.5-1.9-1.4-2.5c-0.9-0.6-1.8-0.8-2.9-0.5
			c-0.1-1.2-0.4-2.2-1.3-2.9c-0.9-0.8-1.9-0.8-3.1-0.8c0.1-0.4,0.2-0.6,0.3-0.9c0.6-2,1.3-4,1.9-6.1c0.3-1.1,0.1-2.1-0.6-3
			c-0.8-1.1-2-1.5-3.3-1.2c-1.4,0.3-2.3,1.2-2.7,2.5c-1,3.2-2,6.4-3.1,9.6c-0.6,1.9-1.2,3.9-1.8,5.8c-0.1,0-0.1,0-0.2,0
			c-0.3-1-0.5-2.1-0.9-3.1c-0.5-1.5-2.2-2.4-3.7-2c-1.6,0.4-2.6,2-2.4,3.7c0.2,2,0.5,4.1,0.4,6.1c-0.2,3.2,0.3,6.3,1.2,9.4
			c0.5,1.9,1,3.9,0.6,5.9c-0.2,1.1-0.5,2.1-0.7,3.1c-0.1,0.5,0,0.9,0.5,1c0.5,0.1,0.8-0.1,0.9-0.6c0.2-0.9,0.5-1.8,0.6-2.6
			c0.5-2.6,0-5.1-0.7-7.6c-0.7-2.5-1.2-5-1.1-7.6c0-1,0.1-1.9,0-2.9c-0.1-1.5-0.3-3-0.4-4.5c-0.1-1,0.4-1.9,1.4-2.1
			c0.8-0.2,1.6,0.4,1.9,1.4c0.2,0.8,0.4,1.6,0.6,2.3c0.3,1,0.5,2,0.8,3c0.1,0.3,0.5,0.7,0.8,0.7c0.2,0,0.5-0.4,0.7-0.7
			c0.2-0.3,0.2-0.7,0.4-1c1.8-5.7,3.6-11.4,5.5-17c0.1-0.3,0.3-0.7,0.5-0.9c0.6-0.6,1.6-0.7,2.3-0.3c0.8,0.5,1.1,1.3,0.8,2.3
			c-0.3,1.2-0.7,2.3-1.1,3.5c-1,3.1-2,6.2-3,9.3c-0.2,0.5-0.1,0.9,0.4,1.1c0.5,0.2,0.8-0.1,1-0.6c0-0.1,0.1-0.3,0.1-0.4
			c0.3-1,0.6-1.9,0.9-2.9c0.3-0.7,0.8-1.2,1.6-1.3c1.5-0.2,2.5,1.1,2,2.7c-0.4,1.3-0.8,2.6-1.3,3.9c-0.1,0.4-0.1,0.9,0.4,1
			c0.5,0.2,0.8-0.1,1-0.6c0.2-0.7,0.4-1.4,0.6-2c0.4-1.1,1.4-1.7,2.5-1.3c0.9,0.3,1.5,1.4,1.1,2.5c-0.3,1.1-0.7,2.1-1,3.2
			c-0.1,0.5-0.1,0.8,0.4,1c0.5,0.2,0.8-0.1,1-0.5c0.2-0.6,0.4-1.1,0.5-1.7c0.4-1.1,1.4-1.7,2.4-1.4c1,0.3,1.6,1.4,1.2,2.5
			c-0.4,1.2-0.8,2.4-1.1,3.6c-0.9,2.9-2.1,5.6-4.2,7.9c-1,1.1-1.8,2.3-2.5,3.5c-0.8,1.3-1.4,2.6-2.1,4c-0.2,0.4-0.1,0.9,0.4,1.1
			c0.5,0.2,0.8-0.1,1-0.6c0.8-2.1,2-3.9,3.3-5.6c1-1.4,2.2-2.7,3.1-4.1c1.9-2.9,2.6-6.3,3.6-9.6C153.5,116,152.4,114.3,150.7,113.8z
			"/>
		<path class="st5" d="M132.7,101.1c0.6-0.1,0.6-0.6,0.6-1.2c-0.6-3.3,1.8-6.2,5.1-6.5c3-0.3,5.8,2.4,5.8,5.5c0.1,0-0.1,0,0,0
			c-0.1,1-0.4,2-0.8,2.9c-0.2,0.5-0.4,0.9,0.1,1.3c0.6,0.3,0.9-0.1,1.2-0.5c1-1.8,1.3-3.7,0.7-5.6c-1.1-3.5-4.6-5.6-8.1-4.9
			c-3.8,0.9-6.1,4.2-5.5,8.1C131.9,100.7,132.1,101.2,132.7,101.1z"/>
		<path class="st5" d="M158.8,96.2c-1.2-1.2-2.4-2.4-3.6-3.6c-0.2-0.2-0.7-0.4-1-0.3c-0.2,0.1-0.4,0.6-0.4,0.9c-0.1,0.9,0,1.8,0,2.9
			c-1.9,0-3.8,0-5.6,0c-0.5,0-1,0.1-1,0.8c0,0.6,0.4,0.7,1,0.7c1.6,0,3.2,0,4.8,0c0.3,0,0.5,0,0.8,0c0,1.1,0,2.1,0,3.1
			c0,0.3,0.2,0.8,0.5,0.9c0.2,0.1,0.7,0,0.9-0.3c1.2-1.2,2.4-2.4,3.6-3.6C159.4,97.1,159.4,96.8,158.8,96.2z M155.3,98.8
			c0-1.2,0-2.5,0-4c0.7,0.8,1.4,1.4,2,2.1C156.6,97.5,155.9,98.2,155.3,98.8z"/>
		<path class="st5" d="M123.7,97.5c0.4,0,0.6,0,0.9,0c1.6,0,3.2,0,4.8,0c0.5,0,0.9-0.2,0.9-0.7c0-0.6-0.4-0.8-0.9-0.8
			c-0.6,0-1.2,0-1.8,0c-1.3,0-2.5,0-3.9,0c0-1,0-2,0-2.9c0-0.3-0.2-0.8-0.5-0.9c-0.2-0.1-0.7,0.1-0.9,0.3c-1.3,1.2-2.5,2.4-3.7,3.7
			c-0.5,0.6-0.5,0.9,0,1.4c1.2,1.2,2.4,2.4,3.6,3.6c0.2,0.2,0.7,0.4,0.9,0.3c0.3-0.1,0.5-0.6,0.5-0.9
			C123.7,99.7,123.7,98.7,123.7,97.5z M122.1,99c-0.7-0.7-1.4-1.4-2-2.1c0.7-0.6,1.3-1.3,2-2C122.1,96.3,122.1,97.6,122.1,99z"/>
	</g>
</g>
<text transform="matrix(1 0 0 1 971.9434 206.2712)" class="st10 st12 st3">Reach every column:</text>
<text transform="matrix(1 0 0 1 971.9434 221.2712)" class="st10 st12 st3">on computer press hold and drag,</text>
<text transform="matrix(1 0 0 1 971.9434 236.2712)" class="st10 st12 st3">on a phone swipe it.</text>
</svg>
